# xmcd
#
# Track frame offsets:
#	150
#	68171
#	111343
#	134289
#
# Disc length: 2263 seconds
#
# Revision: 1
# Processed by: cddbd v1.5.2PL0 Copyright (c) Steve Scherf et al.
# Submitted via: audiograbber 1.83.01
#
DISCID=3508d504
DTITLE=Grateful Dead - 77-12-31 Winterland Arena, San Francisco CA
DYEAR=1900
DGENRE=
TTITLE0=Not Fade Away
TTITLE1=Around and Around
TTITLE2=One More Saturday Night
TTITLE3=Casey Jones
EXTD=
EXTT0=
EXTT1=
EXTT2=
EXTT3=
PLAYORDER=
